# AST/ASF file generated using VICON BodyLanguage
# -----------------------------------------------
:version 1.10
:name VICON
:units
  mass 1.0
  length 0.45
  angle deg
:documentation
   .ast/.asf automatically generated from VICON data using
   VICON BodyBuilder and BodyLanguage model FoxedUp or BRILLIANT.MOD
:root
   order TX TY TZ RX RY RZ
   axis XYZ
   position 0 0 0  
   orientation 0 0 0 
:bonedata
  begin
     id 1 
     name lhipjoint
     direction 0.575328 -0.747301 0.332475 
     length 2.40933 
     axis 0 0 0  XYZ
  end
  begin
     id 2 
     name lfemur
     direction 0.34202 -0.939693 0  
     length 7.31453  
     axis 0 0 20  XYZ
    dof rx ry rz
    limits (-160.0 20.0)
           (-70.0 70.0)
           (-60.0 70.0)
  end
  begin
     id 3 
     name ltibia
     direction 0.34202 -0.939693 0   
     length 7.82185   
     axis 0 0 20   XYZ
    dof rx
    limits (-10.0 170.0)
  end
  begin
     id 4 
     name lfoot
     direction 0.0795993 -0.218697 0.972541   
     length 2.19173   
     axis -90 7.62852e-016 20   XYZ
    dof rx rz
    limits (-45.0 90.0)
           (-70.0 20.0)
  end
  begin
     id 5 
     name ltoes
     direction 1.53537e-011 -4.21894e-011 1   
     length 1.10023   
     axis -90 7.62852e-016 20   XYZ
    dof rx
    limits (-90.0 20.0)
  end
  begin
     id 6 
     name rhipjoint
     direction -0.513884 -0.783789 0.348708   
     length 2.29716  
     axis 0 0 0  XYZ 
  end
  begin
     id 7 
     name rfemur
     direction -0.34202 -0.939693 0   
     length 7.59573   
     axis 0 0 -20   XYZ
    dof rx ry rz
    limits (-160.0 20.0)
           (-70.0 70.0)
           (-70.0 60.0)
  end
  begin
     id 8 
     name rtibia
     direction -0.34202 -0.939693 0   
     length 7.66402   
     axis 0 0 -20   XYZ
    dof rx
    limits (-10.0 170.0)
 end
 begin
     id 9 
     name rfoot
     direction -0.137793 -0.378584 0.915253   
     length 2.27056  
     axis -90 -7.62852e-016 -20   XYZ
    dof rx rz
    limits (-45.0 90.0)
           (-20.0 70.0)
  end
  begin
     id 10 
     name rtoes
     direction -1.53493e-011 -4.22159e-011 1   
     length 1.11766   
     axis -90 -7.62852e-016 -20   XYZ
    dof rx
    limits (-90.0 20.0)
  end
  begin
     id 11 
     name lowerback
     direction -0.00732775 0.998356 -0.05685   
     length 2.16513   
     axis 0 0 0   XYZ
    dof rx ry rz
    limits (-20.0 45.0)
           (-30.0 30.0)
           (-30.0 30.0)
  end
  begin
     id 12 
     name upperback
     direction 0.0218081 0.999627 -0.0164647   
     length 2.16755   
     axis 0 0 0   XYZ
    dof rx ry rz
    limits (-20.0 45.0)
           (-30.0 30.0)
           (-30.0 30.0)
  end
  begin
     id 13 
     name thorax
     direction 0.02365 0.999661 0.0108914   
     length 2.16932   
     axis 0 0 0   XYZ
    dof rx ry rz
    limits (-20.0 45.0)
           (-30.0 30.0)
           (-30.0 30.0)
  end
  begin
     id 14 
     name lowerneck
     direction -0.0523929 0.978385 0.200044   
     length 1.63877   
     axis 0 0 0   XYZ
    dof rx ry rz
    limits (-20.0 45.0)
           (-30.0 30.0)
           (-30.0 30.0)
  end
  begin
     id 15 
     name upperneck
     direction 0.0448674 0.981321 -0.187074   
     length 1.69014   
     axis 0 0 0   XYZ
    dof rx ry rz
    limits (-20.0 45.0)
           (-30.0 30.0)
           (-30.0 30.0)
  end
  begin
     id 16
     name head
     direction 0.0199089 0.996118 -0.0857429  
     length 1.70094  
     axis 0 0 0   XYZ
    dof rx ry rz
    limits (-20.0 45.0)
           (-30.0 30.0)
           (-30.0 30.0)
  end
  begin
     id 17 
     name lclavicle
     direction 0.940366 0.30191 -0.156722  
     length 3.37521  
     axis 0 0 0   XYZ
    dof ry rz
    limits (-20.0 10.0)
           (0.0 20.0)
  end
  begin
     id 18 
     name lhumerus
     direction 1 -4.4897e-011 -1.7911e-027   
     length 5.25287   
     axis 180 -30 -90   XYZ
    dof rx ry rz
    limits (-60.0 90.0)
           (-90.0 90.0)
           (-90.0 90.0)
  end
  begin
     id 19
     name lradius
     direction 1 -4.48951e-011 1.04424e-027   
     length 3.51014   
     axis 180 -30 -90   XYZ
    dof rx
    limits (-10.0 170.0)
  end
  begin
     id 20
     name lwrist
     direction 1 -4.48997e-011 -9.5942e-028   
     length 1.75507   
     axis 8.48502e-016 90 90   XYZ
    dof ry
    limits (-180.0 0.0)
 end
  begin
     id 21 
     name lhand
     direction 1 -4.48831e-011 -1.90777e-027   
     length 0.706179   
     axis 1.22306e-015 90 90   XYZ
    dof rx rz
    limits (-90.0 90.0)
           (-45.0 45.0)
  end
  begin
     id 22 
     name lfingers
     direction 1 -4.49108e-011 -3.85244e-027   
     length 0.569339   
     axis 2.44611e-015 90 90   XYZ
    dof rx
    limits (0.0 90.0)
  end
  begin
     id 23
     name lthumb
     direction 0.707107 -6.34953e-011 0.707107   
     length 0.817461   
     axis -90 45 -1.62303e-014   XYZ
    dof rx rz
    limits (-45.0 45.0)
           (-45.0 45.0)
  end
  begin
     id 24 
     name rclavicle
     direction -0.905329 0.382405 -0.184787   
     length 3.30787  
     axis 0 0 0   XYZ 
    dof ry rz
    limits (-10.0 20.0)
           (-20.0 0.0)
  end
  begin
     id 25 
     name rhumerus
     direction -1 -4.48953e-011 -9.15316e-029  
     length 5.28721   
     axis 180 30 90   XYZ
    dof rx ry rz
    limits (-90.0 60.0)
           (-90.0 90.0)
           (-90.0 90.0)
  end
  begin
     id 26 
     name rradius
     direction -1 -4.48987e-011 9.37824e-028   
     length 3.50544   
     axis 180 30 90   XYZ
    dof rx
    limits (-10.0 170.0)
  end
  begin
     id 27 
     name rwrist
     direction -1 -4.48967e-011 -9.58414e-028   
     length 1.75272   
     axis 8.48502e-016 -90 -90   XYZ
    dof ry
    limits (-180.0 0.0)
  end
  begin
     id 28
     name rhand
     direction -1 -4.48904e-011 -1.91266e-027   
     length 0.884996   
     axis 1.22306e-015 -90 -90   XYZ
    dof rx rz
    limits (-90.0 90.0)
           (-45.0 45.0)
  end
  begin
     id 29
     name rfingers
     direction -1 -4.4909e-011 -3.85015e-027   
     length 0.713507   
     axis 2.44611e-015 -90 -90   XYZ
    dof rx
    limits (0.0 90.0)
  end
  begin
     id 30
     name rthumb
     direction -0.707107 -6.34853e-011 0.707107   
     length 1.02446   
     axis -90 -45 1.62303e-014   XYZ
    dof rx rz
    limits (-45.0 45.0)
           (-45.0 45.0)
  end
:hierarchy
  begin
    root lhipjoint rhipjoint lowerback
    lhipjoint lfemur
    lfemur ltibia
    ltibia lfoot
    lfoot ltoes
    rhipjoint rfemur
    rfemur rtibia
    rtibia rfoot
    rfoot rtoes
    lowerback upperback
    upperback thorax
    thorax lowerneck lclavicle rclavicle
    lowerneck upperneck
    upperneck head
    lclavicle lhumerus
    lhumerus lradius
    lradius lwrist
    lwrist lhand lthumb
    lhand lfingers
    rclavicle rhumerus
    rhumerus rradius
    rradius rwrist
    rwrist rhand rthumb
    rhand rfingers
  end

#!OML:ASF F:\twosubjects\two\Thursday\Session 1\justin.ASF
:FULLY-SPECIFIED
:DEGREES
81
root 7.37464 9.3584 -21.4485 -24.6467 -2.53651 0.361258
lowerback 37.1183 1.5687 -2.0318
upperback 15.3073 1.29475 1.40918
thorax -1.65008 0.446885 2.10807
lowerneck -11.9133 -13.3908 -16.4595
upperneck -2.69604 -16.4143 19.0585
head 4.16482 -7.61881 7.00618
rclavicle -6.36111e-015 9.93923e-016
rhumerus 21.5601 37.0749 -71.7626
rradius 61.6594
rwrist 7.24181
rhand 13.1673 6.47079
rfingers 7.12502
rthumb 38.1238 -19.2946
lclavicle -6.36111e-015 9.93923e-016
lhumerus 22.6982 -37.598 71.0905
lradius 59.8422
lwrist -36.6619
lhand 20.1126 37.7282
lfingers 7.12502
lthumb 44.64 61.3682
rfemur -68.4336 -17.7174 7.58644
rtibia 86.9856
rfoot 6.15058 4.55429
rtoes -8.84097
lfemur -67.7195 19.0323 -5.05455
ltibia 88.9999
lfoot 2.75453 -17.6363
ltoes -5.60668
82
root 7.37721 9.35969 -21.4521 -24.6997 -2.57296 0.267011
lowerback 37.2451 1.49187 -1.87496
upperback 15.2686 1.25046 1.44223
thorax -1.72996 0.431598 2.07356
lowerneck -12.3911 -13.0703 -15.9777
upperneck -2.37259 -15.957 18.2738
head 4.13456 -7.38647 6.73226
rclavicle 1.86858e-014 9.14409e-015
rhumerus 21.5266 37.0966 -71.8336
rradius 61.6398
rwrist 7.39853
rhand 13.0255 6.41807
rfingers 7.12502
rthumb 37.9899 -19.3839
lclavicle 1.86858e-014 9.14409e-015
lhumerus 22.5465 -37.4718 71.209
lradius 59.8761
lwrist -36.7731
lhand 20.9565 37.2513
lfingers 7.12502
lthumb 45.425 60.5815
rfemur -68.3223 -17.6376 7.61312
rtibia 86.9585
rfoot 6.14969 4.47544
rtoes -8.57149
lfemur -67.682 19.0048 -4.92945
ltibia 89.0337
lfoot 3.12949 -17.4265
ltoes -3.94761
83
root 7.37852 9.35946 -21.4529 -24.6723 -2.51842 0.432378
lowerback 37.2869 1.50298 -2.00843
upperback 15.1933 1.21769 1.41388
thorax -1.82466 0.412052 2.12324
lowerneck -12.6961 -12.6995 -15.6531
upperneck -2.1452 -15.4442 17.7578
head 4.08783 -7.13073 6.58273
rclavicle -1.22253e-014 -1.59028e-015
rhumerus 21.3811 37.1035 -71.993
rradius 61.6018
rwrist 7.5174
rhand 13.0892 6.42906
rfingers 7.12502
rthumb 38.0501 -19.3565
lclavicle -1.22253e-014 -1.59028e-015
lhumerus 22.2809 -37.2277 71.5496
lradius 59.7286
lwrist -37.1216
lhand 21.1421 36.707
lfingers 7.12502
lthumb 45.5975 59.9673
rfemur -68.351 -17.6088 7.39829
rtibia 86.9449
rfoot 6.11314 4.43323
rtoes -8.42758
lfemur -67.7285 18.9846 -5.12919
ltibia 89.0685
lfoot 3.13457 -17.3772
ltoes -3.07853
84
root 7.37905 9.3572 -21.4502 -24.616 -2.45561 0.612682
lowerback 37.3634 1.54569 -2.19603
upperback 15.0157 1.20527 1.40696
thorax -1.89787 0.399009 2.21811
lowerneck -13.0792 -12.3077 -15.9701
upperneck -1.65729 -14.8821 18.0317
head 4.25768 -6.81553 6.77391
rclavicle -5.06901e-015 4.57205e-015
rhumerus 21.2651 37.1682 -72.0221
rradius 61.5803
rwrist 7.57694
rhand 13.1726 6.63875
rfingers 7.12502
rthumb 38.1288 -19.1253
lclavicle -5.06901e-015 4.57205e-015
lhumerus 22.0464 -37.1565 71.8714
lradius 59.5425
lwrist -37.2569
lhand 20.9836 36.8014
lfingers 7.12502
lthumb 45.4502 60.1214
rfemur -68.4725 -17.6775 7.24104
rtibia 86.9522
rfoot 6.04628 4.52399
rtoes -8.85099
lfemur -67.788 18.9684 -5.3354
ltibia 89.0916
lfoot 2.84014 -17.3484
ltoes -3.94068
85
root 7.38068 9.35667 -21.4494 -24.5736 -2.45285 0.61633
lowerback 37.1717 1.47788 -2.11734
upperback 15.1509 1.15232 1.39511
thorax -1.83185 0.376483 2.1832
lowerneck -13.74 -11.9622 -16.1211
upperneck -1.05969 -14.3618 18.0651
head 4.47114 -6.51397 6.84829
rclavicle -1.54058e-014 -3.77691e-015
rhumerus 21.2934 37.1952 -72.0548
rradius 61.5883
rwrist 7.51283
rhand 13.1337 6.60058
rfingers 7.12502
rthumb 38.0922 -19.1735
lclavicle -1.54058e-014 -3.77691e-015
lhumerus 22.0375 -37.099 71.9131
lradius 59.5424
lwrist -36.973
lhand 20.967 37.1412
lfingers 7.12502
lthumb 45.4348 60.4674
rfemur -68.5295 -17.7146 7.24908
rtibia 86.9424
rfoot 6.13378 4.52524
rtoes -8.92228
lfemur -67.8362 18.9511 -5.33805
ltibia 89.101
lfoot 2.21593 -17.5209
ltoes -5.56916
86
root 7.37746 9.35697 -21.4485 -24.5428 -2.52303 0.553086
lowerback 37.034 1.43562 -2.01445
upperback 15.2299 1.13609 1.39901
thorax -1.69994 0.370916 2.1412
lowerneck -14.5554 -11.6482 -15.8701
upperneck -0.340381 -13.9034 17.6236
head 4.68065 -6.2517 6.69527
rclavicle 4.87022e-015 6.36111e-015
rhumerus 21.4105 37.2412 -72.0365
rradius 61.6213
rwrist 7.29138
rhand 12.8777 6.318
rfingers 7.12502
rthumb 37.8503 -19.5218
lclavicle 4.87022e-015 6.36111e-015
lhumerus 22.0637 -36.9213 71.9114
lradius 59.5757
lwrist -36.7959
lhand 20.7037 37.2546
lfingers 7.12502
lthumb 45.19 60.6789
rfemur -68.5571 -17.6144 7.33251
rtibia 86.9522
rfoot 6.28937 4.39628
rtoes -8.35392
lfemur -67.8361 19.0481 -5.26062
ltibia 89.0498
lfoot 1.78185 -17.7998
ltoes -8.0573
87
root 7.37347 9.35826 -21.4497 -24.5953 -2.53349 0.601224
lowerback 37.0336 1.47523 -2.1198
upperback 15.2675 1.1514 1.43531
thorax -1.66169 0.370315 2.2295
lowerneck -15.5545 -11.3142 -15.6181
upperneck 0.634019 -13.4225 17.1982
head 4.99924 -5.967 6.54356
rclavicle -6.16232e-015 -5.76476e-015
rhumerus 21.4772 37.3064 -71.9561
rradius 61.6264
rwrist 7.14236
rhand 12.4863 6.15261
rfingers 7.12502
rthumb 37.4805 -19.7861
lclavicle -6.16232e-015 -5.76476e-015
lhumerus 21.9634 -36.8267 71.9479
lradius 59.6112
lwrist -36.6955
lhand 20.3961 37.1595
lfingers 7.12502
lthumb 44.9039 60.6968
rfemur -68.5113 -17.5555 7.28543
rtibia 86.9625
rfoot 6.20657 4.39067
rtoes -8.30887
lfemur -67.7161 19.0775 -5.29128
ltibia 88.9759
lfoot 1.63322 -17.9664
ltoes -10.5194
88
root 7.37541 9.36164 -21.4555 -24.739 -2.43062 0.627705
lowerback 37.1697 1.39797 -2.08422
upperback 15.2876 1.0646 1.42124
thorax -1.6783 0.329797 2.22358
lowerneck -16.3386 -10.9408 -15.429
upperneck 1.4571 -12.8908 16.7927
head 5.24071 -5.67339 6.42893
rclavicle 9.14409e-015 1.23246e-014
rhumerus 21.4519 37.3329 -72.0058
rradius 61.635
rwrist 7.0702
rhand 12.3664 6.15458
rfingers 7.12502
rthumb 37.3671 -19.8141
lclavicle 9.14409e-015 1.23246e-014
lhumerus 21.7967 -36.6483 72.0278
lradius 59.6347
lwrist -36.7423
lhand 20.5392 36.5597
lfingers 7.12502
lthumb 45.037 60.0446
rfemur -68.3054 -17.6611 7.18092
rtibia 86.9286
rfoot 6.06078 4.51619
rtoes -8.63313
lfemur -67.5374 18.8897 -5.32965
ltibia 88.926
lfoot 1.63171 -17.9587
ltoes -9.2792
89
root 7.37728 9.35996 -21.4586 -24.8221 -2.3428 0.525065
lowerback 37.2861 1.23793 -1.84058
upperback 15.257 0.944774 1.38175
thorax -1.7402 0.285797 2.09341
lowerneck -16.4985 -10.5179 -14.8148
upperneck 1.64284 -12.3561 15.9974
head 5.13204 -5.4366 6.14748
rclavicle 3.77691e-015 -9.93923e-016
rhumerus 21.3358 37.369 -72.1449
rradius 61.6921
rwrist 7.04316
rhand 12.3808 6.18078
rfingers 7.12502
rthumb 37.3808 -19.7843
lclavicle 3.77691e-015 -9.93923e-016
lhumerus 21.6981 -36.4738 72.0632
lradius 59.5487
lwrist -37.0042
lhand 20.7449 35.8826
lfingers 7.12502
lthumb 45.2283 59.2916
rfemur -68.1529 -17.7704 7.20426
rtibia 86.907
rfoot 6.04682 4.56158
rtoes -8.56488
lfemur -67.4951 18.7504 -5.26623
ltibia 88.9139
lfoot 1.66997 -17.8979
ltoes -10.126
90
root 7.37505 9.35587 -21.4579 -24.8187 -2.36784 0.442863
lowerback 37.2539 1.17118 -1.69154
upperback 15.2734 0.91153 1.3683
thorax -1.709 0.276931 2.01294
lowerneck -16.7127 -10.0657 -13.6398
upperneck 1.59788 -11.8221 14.7051
head 4.89691 -5.2227 5.61731
rclavicle 5.96354e-016 9.93923e-016
rhumerus 21.4142 37.3711 -72.1588
rradius 61.6608
rwrist 7.02177
rhand 12.5347 6.21858
rfingers 7.12502
rthumb 37.5262 -19.708
lclavicle 5.96354e-016 9.93923e-016
lhumerus 21.8428 -36.6545 71.7957
lradius 59.4945
lwrist -36.8596
lhand 19.9433 36.4843
lfingers 7.12502
lthumb 44.4823 60.1849
rfemur -68.154 -17.7509 7.29386
rtibia 86.9082
rfoot 6.06822 4.52158
rtoes -8.33463
lfemur -67.5366 18.8109 -5.16235
ltibia 88.9357
lfoot 2.06289 -17.9199
ltoes -6.67491
